<?xml version="1.0" standalone="no"?>
<!DOCTYPE svg PUBLIC "-//W3C//DTD SVG 20010904//EN"
 "http://www.w3.org/TR/2001/REC-SVG-20010904/DTD/svg10.dtd">
<svg version="1.0" xmlns="http://www.w3.org/2000/svg"
 width="266.000000pt" height="190.000000pt" viewBox="0 0 266.000000 190.000000"
 preserveAspectRatio="xMidYMid meet">
<metadata>
Created by potrace 1.10, written by Peter Selinger 2001-2011
</metadata>
<g transform="translate(0.000000,190.000000) scale(0.100000,-0.100000)"
fill="#0cad00" stroke="none">
<path d="M1880 1625 c-14 -7 -29 -11 -33 -8 -5 3 -1 -7 9 -23 18 -29 18 -29
-1 -14 -19 15 -19 14 -2 -12 12 -19 14 -29 5 -34 -6 -4 -8 -3 -5 3 4 6 -5 15
-20 22 -24 11 -25 11 -12 -5 15 -19 15 -19 -34 1 -17 7 -43 -22 -52 -57 -6
-22 -3 -29 11 -35 10 -4 19 -2 22 5 6 19 18 14 19 -8 1 -16 -2 -20 -18 -15
-11 4 -19 2 -19 -5 0 -6 5 -8 10 -5 6 3 10 0 10 -7 0 -8 5 -7 16 4 15 15 18
14 39 -8 16 -18 25 -21 28 -12 4 10 8 10 16 -2 6 -8 11 -19 11 -25 0 -5 -5 -3
-10 5 -8 13 -10 12 -10 -2 0 -10 4 -18 9 -18 5 0 11 -9 14 -19 4 -17 13 -19
62 -18 49 2 61 -2 86 -24 24 -21 27 -30 20 -55 -5 -19 -15 -30 -29 -32 -24 -4
-30 16 -10 36 8 8 5 14 -15 23 -15 7 -27 19 -28 28 0 10 -4 6 -10 -8 -5 -14
-7 -37 -4 -53 14 -63 -36 -17 -59 55 -3 9 -13 17 -21 17 -9 0 -13 -4 -10 -10
3 -5 0 -10 -7 -11 -7 0 -3 -5 10 -11 12 -6 22 -17 22 -25 0 -7 4 -13 10 -13 5
0 7 -7 4 -15 -4 -8 -16 -15 -28 -15 -15 0 -17 -3 -8 -9 11 -7 11 -9 -2 -14 -9
-4 -16 -12 -16 -19 0 -9 3 -9 11 2 9 13 10 13 6 0 -2 -8 -9 -15 -15 -15 -6 0
-21 -9 -34 -20 -12 -11 -32 -25 -43 -32 -11 -7 -15 -12 -8 -13 6 0 11 -13 11
-29 -1 -17 -4 -30 -7 -29 -19 1 -50 -16 -44 -25 4 -6 0 -8 -11 -4 -9 4 -15 3
-11 -2 3 -5 1 -11 -3 -13 -5 -1 -12 -16 -16 -31 -4 -16 -3 -26 2 -23 5 3 9 0
9 -7 0 -7 4 -21 8 -32 5 -14 4 -16 -3 -6 -8 11 -10 11 -15 0 -4 -10 -6 -10 -6
-1 -1 14 -31 17 -31 3 0 -5 -13 -13 -28 -19 -27 -9 -28 -8 -28 24 0 18 4 30
10 27 6 -4 6 1 2 13 -13 33 -14 48 -2 63 9 12 8 13 -6 8 -15 -5 -16 -2 -8 18
6 15 6 27 -1 30 -5 4 -6 12 -2 18 5 7 8 34 9 61 1 37 -4 54 -19 69 -19 19 -33
21 -181 21 -89 0 -180 -3 -203 -5 -24 -3 -39 -1 -36 4 3 5 -4 6 -17 2 -17 -5
-21 -4 -15 5 5 9 4 11 -4 6 -8 -5 -9 -12 -2 -20 7 -8 4 -12 -10 -13 -11 -1
-17 2 -14 7 6 10 -31 24 -44 15 -5 -3 -13 0 -16 5 -5 8 -12 7 -23 -2 -10 -8
-28 -13 -42 -10 -14 2 -90 4 -170 5 -139 2 -146 1 -168 -21 -24 -25 -28 -56
-12 -96 6 -17 6 -27 -1 -32 -6 -4 -8 -22 -3 -48 4 -22 6 -45 5 -51 -7 -51 -7
-203 1 -212 6 -7 6 -25 -1 -49 -13 -47 3 -85 39 -95 40 -11 90 -10 90 2 0 8 4
8 13 0 19 -15 60 -20 75 -9 6 6 12 7 12 2 0 -5 5 -2 10 6 7 11 10 11 10 2 0
-7 4 -11 9 -7 5 3 12 1 16 -5 8 -13 52 -13 60 0 3 5 13 6 22 3 11 -4 14 -3 9
5 -4 7 -2 12 3 12 6 0 11 -4 11 -10 0 -5 25 -8 55 -8 41 2 54 5 51 15 -7 16
-6 16 30 -1 16 -8 56 -13 91 -12 39 1 59 -2 56 -9 -3 -5 0 -5 7 2 8 7 22 8 40
3 17 -5 32 -4 39 3 7 7 13 3 20 -14 5 -13 10 -18 10 -11 1 7 5 11 11 7 5 -3 7
-13 4 -23 -4 -12 -3 -13 3 -4 6 7 17 10 28 6 15 -6 15 -3 -5 24 -24 33 -24 47
1 37 14 -5 19 -20 22 -67 2 -21 14 -11 19 17 2 11 10 19 17 17 38 -8 148 -8
158 0 6 5 9 17 6 25 -4 11 -2 14 5 9 7 -4 13 0 14 11 1 10 2 25 4 33 1 8 2 23
3 34 1 11 6 16 15 13 7 -3 25 6 39 19 20 19 25 32 24 62 -1 22 3 44 10 51 10
9 13 9 13 -1 0 -10 3 -9 9 1 8 12 16 13 50 2 23 -6 41 -16 41 -22 0 -5 11 -14
24 -19 20 -7 26 -18 31 -57 3 -26 8 -56 10 -66 2 -9 -1 -15 -6 -11 -5 3 -9 -4
-9 -15 0 -11 5 -23 11 -27 8 -4 7 -9 -2 -15 -10 -6 -4 -9 19 -9 32 0 43 -14
20 -23 -10 -4 -10 -6 0 -6 7 -1 15 6 18 14 5 11 10 12 25 2 17 -10 22 -9 33 6
7 9 19 17 27 17 21 1 54 29 44 37 -4 5 -10 2 -12 -4 -14 -40 -24 17 -13 72 1
6 2 15 1 20 -1 6 -2 102 -2 215 1 166 -2 209 -15 227 -8 13 -20 21 -25 17 -8
-4 -8 -1 -1 12 13 26 6 76 -13 90 -14 11 -14 12 0 18 9 3 13 2 10 -4 -3 -6 -2
-10 3 -10 6 0 13 7 16 16 3 8 10 13 15 10 5 -3 15 2 22 11 10 11 10 14 2 9 -9
-5 -11 -2 -7 8 3 9 10 13 15 10 13 -8 6 39 -8 54 -6 6 -17 12 -23 12 -6 0 -8
5 -5 10 3 6 -2 10 -12 10 -15 0 -16 2 -3 11 12 9 11 10 -7 6 -13 -3 -23 -1
-23 4 0 5 -11 11 -25 15 -14 3 -26 14 -27 23 0 9 -1 23 -2 31 -1 8 -9 16 -19
18 -9 2 -15 8 -12 13 4 5 0 10 -7 10 -7 1 -19 2 -26 3 -7 0 -16 6 -20 13 -5 8
-13 8 -32 -2z m40 -35 c37 -19 40 -24 40 -60 0 -38 1 -40 33 -40 23 -1 42 -11
71 -39 46 -46 44 -76 -7 -84 -45 -6 -78 8 -70 29 5 13 2 16 -10 11 -9 -3 -19
-2 -22 3 -4 6 10 10 32 10 25 0 33 -3 25 -9 -11 -6 -10 -10 4 -15 22 -8 23 -7
17 31 -3 20 -9 30 -16 26 -6 -4 -8 0 -5 8 4 11 -3 16 -28 17 -28 2 -34 -1 -35
-18 -1 -11 -2 -26 -3 -32 -1 -7 8 -24 20 -38 27 -29 19 -53 -16 -48 -18 2 -27
14 -38 46 -8 24 -22 46 -31 49 -9 3 -26 15 -38 25 -12 12 -37 20 -58 21 -27 1
-35 5 -33 16 4 19 59 16 100 -5 15 -8 34 -14 43 -14 9 0 18 -7 21 -15 4 -8 10
-15 15 -15 5 0 4 11 -2 24 -8 16 -17 22 -27 19 -12 -5 -14 -1 -10 15 3 11 1
23 -6 25 -6 3 0 9 13 14 19 8 21 11 8 16 -15 6 -43 47 -32 47 3 0 24 -9 45
-20z m77 -140 c2 -17 -1 -18 -18 -10 -24 13 -25 30 -1 30 11 0 18 -8 19 -20z
m-1257 -295 l0 -45 -45 0 -45 0 0 45 0 45 45 0 45 0 0 -45z m112 0 l-4 -45
-39 0 -39 0 0 45 0 45 43 0 42 0 -3 -45z m118 0 l0 -45 -45 0 -45 0 0 45 0 45
45 0 45 0 0 -45z m110 0 l0 -45 -40 0 -40 0 0 45 0 45 40 0 40 0 0 -45z m485
-55 c0 -97 -1 -100 -22 -100 -14 0 -23 -6 -23 -15 0 -18 17 -20 22 -3 2 6 9 9
14 5 6 -3 11 -61 13 -133 2 -120 1 -127 -15 -113 -16 13 -17 12 -10 -6 21 -54
28 -76 23 -81 -3 -3 -29 -4 -58 -2 l-54 3 36 23 c28 17 36 29 37 52 0 17 -2
30 -6 30 -7 0 -8 48 -3 115 2 29 2 30 12 6 5 -13 6 -47 3 -75 -4 -28 -3 -48 1
-44 12 11 15 58 9 123 -5 50 -9 61 -24 62 -26 2 -30 -17 -28 -131 l2 -99 -37
-33 -37 -34 -145 0 -145 0 0 275 0 275 218 0 217 0 0 -100z m357 88 c3 -8 11
-9 24 -3 10 5 43 9 71 9 l53 1 0 -272 0 -273 -45 0 -45 0 0 113 0 113 -40 -4
-40 -4 0 46 0 46 40 0 40 0 0 78 0 78 -40 -4 c-39 -4 -40 -5 -40 -43 l0 -39
-45 0 -45 0 0 45 0 45 46 0 46 0 -4 40 c-2 26 1 40 8 40 7 0 14 -5 16 -12z
m-1182 -145 l0 -43 -45 0 -45 0 0 43 0 44 45 0 45 0 0 -44z m260 35 c63 -1 99
-5 80 -8 l-35 -6 33 -7 c27 -5 31 -10 24 -24 -5 -10 -7 -24 -5 -30 6 -15 -13
-17 -22 -3 -4 6 -11 8 -16 5 -5 -4 -9 -1 -9 4 0 6 -7 11 -15 11 -8 0 -15 -6
-15 -13 0 -8 -11 -12 -27 -11 -16 1 -27 6 -26 11 1 5 -5 10 -13 10 -8 0 -14
-3 -14 -7 0 -3 -9 -6 -20 -6 -11 0 -20 4 -20 9 0 15 -50 -46 -51 -62 -4 -62
18 -101 57 -101 13 0 32 -10 44 -22 17 -19 18 -24 6 -36 -7 -8 -25 -15 -40
-15 -14 -1 -26 -5 -26 -8 0 -3 -7 -6 -15 -6 -8 0 -15 4 -15 8 0 4 -15 7 -32 7
-57 -1 -57 -1 -52 43 3 27 1 39 -6 34 -5 -3 -10 1 -10 10 0 10 5 13 12 9 8 -5
9 -2 4 11 -4 11 -2 22 6 27 7 4 8 8 2 8 -5 0 -9 14 -8 31 2 23 -1 29 -12 25
-9 -3 -12 -1 -9 4 3 6 13 10 21 10 8 0 14 5 14 11 0 5 -4 7 -10 4 -10 -6 -14
8 -10 35 3 23 10 26 20 10 8 -12 10 -10 10 9 0 18 -4 22 -20 18 -11 -3 -20 -1
-20 3 0 5 28 7 63 4 34 -2 114 -5 177 -6z m820 -123 l0 -45 -45 0 -45 0 0 45
0 45 45 0 45 0 0 -45z m64 20 c-4 -8 -10 -15 -15 -15 -5 0 -9 7 -9 15 0 8 7
15 15 15 9 0 12 -6 9 -15z m-1144 -50 l0 -45 -45 0 -45 0 0 45 0 45 45 0 45 0
0 -45z m230 0 l0 -45 -45 0 -45 0 0 45 0 45 45 0 45 0 0 -45z m110 0 l0 -45
-40 0 -40 0 0 45 0 45 40 0 40 0 0 -45z m650 -100 l0 -45 -43 0 -42 0 0 40 c0
38 0 39 40 43 22 2 41 4 43 5 1 1 2 -18 2 -43z m-990 -10 l0 -45 -45 0 -45 0
0 45 0 45 45 0 45 0 0 -45z m340 0 l0 -45 -40 0 -40 0 0 45 0 45 40 0 40 0 0
-45z m530 18 c0 -19 -3 -24 -10 -17 -6 6 -8 18 -4 27 9 24 14 21 14 -10z
m-870 -138 l0 -45 -45 0 -45 0 0 45 0 45 45 0 45 0 0 -45z m112 0 l-4 -45 -39
0 -39 0 0 45 0 45 43 0 42 0 -3 -45z m118 0 l0 -45 -45 0 -45 0 0 45 0 45 45
0 45 0 0 -45z m112 0 c-4 -45 -4 -45 -42 -45 -38 0 -38 0 -42 45 l-3 45 45 0
45 0 -3 -45z m568 3 c0 -52 -7 -64 -43 -73 -25 -7 -41 9 -16 17 7 2 7 12 0 31
-20 52 -15 67 24 67 35 0 35 -1 35 -42z"/>
<path d="M1230 918 l0 -163 116 2 117 2 1 161 1 160 -117 0 -118 0 0 -162z
m184 126 c3 -8 9 -13 14 -10 11 6 6 -208 -5 -228 -7 -13 -26 -17 -80 -19 -39
-1 -69 1 -67 5 2 4 0 9 -5 12 -8 5 -6 189 3 213 3 8 -1 10 -12 6 -12 -4 -14
-3 -7 5 14 15 115 26 115 12 0 -5 5 -10 10 -10 6 0 10 7 10 15 0 20 16 19 24
-1z"/>
<path d="M1888 343 c12 -2 32 -2 45 0 12 2 2 4 -23 4 -25 0 -35 -2 -22 -4z"/>
<path d="M2144 319 c-3 -6 -1 -16 5 -22 8 -8 11 -5 11 11 0 24 -5 28 -16 11z"/>
<path d="M2110 288 c0 -10 5 -18 10 -18 6 0 10 -7 10 -15 0 -8 5 -15 10 -15
11 0 5 14 -20 50 -8 13 -10 13 -10 -2z"/>
</g>
</svg>
