<?xml version="1.0" standalone="no"?>
<!DOCTYPE svg PUBLIC "-//W3C//DTD SVG 20010904//EN"
 "http://www.w3.org/TR/2001/REC-SVG-20010904/DTD/svg10.dtd">
<svg version="1.0" xmlns="http://www.w3.org/2000/svg"
 width="798.000000pt" height="570.000000pt" viewBox="0 0 798.000000 570.000000"
 preserveAspectRatio="xMidYMid meet">
<metadata>
Created by potrace 1.10, written by Peter Selinger 2001-2011
</metadata>
<g transform="translate(0.000000,570.000000) scale(0.100000,-0.100000)"
fill="#000000" stroke="none">
<path d="M0 2850 l0 -2850 3990 0 3990 0 0 2850 0 2850 -3990 0 -3990 0 0
-2850z m5705 1926 c11 -7 32 -16 48 -20 15 -3 27 -11 27 -16 0 -6 6 -10 14
-10 7 0 26 -12 42 -27 26 -24 29 -34 30 -87 2 -169 1 -164 32 -169 15 -2 4 -4
-24 -2 l-52 1 6 -39 c5 -38 4 -39 -19 -32 -31 9 -49 33 -49 64 0 14 -4 33 -10
41 -7 12 -12 12 -29 -4 -22 -20 -57 -18 -55 4 1 8 4 34 8 58 7 35 5 42 -8 42
-40 0 4 58 47 62 39 4 53 38 15 38 -13 0 -31 7 -41 15 -25 18 -59 83 -51 96 6
11 38 4 69 -15z m-295 -277 c19 -5 47 -9 62 -9 32 0 94 -26 125 -53 16 -14 32
-18 60 -14 46 5 103 -24 103 -54 0 -14 9 -21 31 -26 24 -5 30 -10 25 -26 -2
-10 1 -28 7 -38 10 -16 9 -21 -2 -28 -7 -5 -10 -14 -7 -20 8 -13 36 -15 36 -3
0 4 20 9 45 10 28 1 44 -2 40 -8 -3 -6 -13 -10 -21 -10 -8 0 -14 -7 -14 -15 0
-20 -17 -19 -29 2 -5 10 -12 15 -16 11 -8 -8 23 -58 36 -58 5 0 9 7 9 15 0 8
7 15 15 15 8 0 15 -7 15 -15 0 -8 7 -15 15 -15 18 0 20 -26 2 -33 -7 -3 -13
-25 -15 -53 -1 -26 -6 -52 -11 -57 -5 -5 -35 -9 -66 -9 -50 -1 -61 3 -76 23
-10 13 -19 33 -19 44 0 11 -7 33 -15 49 -8 15 -15 39 -15 53 0 60 -75 143
-129 143 -11 0 -39 18 -63 41 -64 61 -78 69 -126 69 -29 0 -44 5 -48 15 -7 17
-64 21 -64 5 0 -5 -6 -10 -14 -10 -11 0 -14 10 -11 38 1 20 3 38 4 38 3 4 100
-9 131 -17z m660 -57 c0 -10 -76 -10 -86 1 -4 4 14 7 39 7 26 0 47 -4 47 -8z
m-712 -24 c-6 -18 -28 -21 -28 -4 0 9 7 16 16 16 9 0 14 -5 12 -12z m792 -49
c25 -17 61 -52 80 -78 28 -37 35 -55 35 -93 0 -69 -31 -98 -102 -98 -30 0 -63
-5 -74 -11 -16 -8 -23 -7 -32 4 -7 9 -21 17 -32 19 -16 3 -13 8 20 27 61 37
66 46 46 89 -20 43 -18 172 2 172 6 0 32 -14 57 -31z m-100 2 c0 -23 -16 -36
-25 -21 -9 14 1 40 15 40 5 0 10 -9 10 -19z m-3842 -900 c2 -75 -1 -118 -9
-127 -14 -17 -234 -20 -244 -4 -13 21 -17 207 -5 229 10 21 17 21 133 19 l122
-3 3 -114z m340 9 c4 -161 13 -151 -126 -148 l-117 3 -3 128 -3 128 123 -3
123 -3 3 -105z m350 -9 c2 -75 -1 -118 -9 -127 -15 -19 -232 -20 -246 -1 -8 9
-12 231 -5 245 1 1 59 1 130 0 l127 -3 3 -114z m334 37 c2 -46 1 -103 -2 -128
l-5 -45 -117 -3 c-90 -2 -118 0 -119 10 -5 40 -6 234 -2 241 2 4 57 7 123 7
l118 0 4 -82z m2523 52 c0 -45 68 -35 123 17 18 18 82 16 102 -2 11 -10 40
-16 83 -17 54 -1 70 2 80 16 7 10 22 16 33 14 19 -3 19 -21 19 -818 l0 -815
-121 -3 c-93 -2 -124 1 -132 11 -8 9 -13 112 -14 328 l-3 314 -105 2 c-58 1
-111 2 -118 2 -10 1 -12 30 -10 129 l3 127 118 3 117 3 -2 227 -3 227 -115 0
-115 0 -5 -120 -5 -120 -105 -3 c-162 -4 -151 -14 -148 131 l3 122 105 2 c163
4 151 -5 150 121 -1 59 -1 113 -1 120 1 9 12 12 33 10 27 -2 33 -7 33 -28z
m-1094 -22 c1 -24 2 -154 3 -290 l1 -248 -41 0 c-25 0 -50 -7 -62 -17 -24 -21
-38 -78 -22 -88 20 -12 56 4 68 30 16 34 51 34 44 0 -5 -27 7 -32 26 -13 15
15 15 9 -2 -38 -10 -29 -12 -79 -9 -191 3 -86 1 -153 -4 -153 -12 0 -55 263
-47 284 7 19 -16 22 -35 4 -10 -11 -17 -8 -34 14 l-22 28 -31 -19 c-28 -17
-33 -28 -49 -104 -11 -52 -15 -99 -11 -123 11 -61 14 -118 7 -129 -9 -15 -9
-88 0 -100 4 -6 11 -57 14 -115 7 -105 7 -106 -20 -138 -15 -18 -34 -31 -41
-28 -8 3 -11 0 -8 -9 4 -9 -14 -34 -43 -63 -35 -36 -58 -51 -85 -55 -21 -3
-40 -3 -42 1 -2 4 -31 6 -63 4 -32 -1 -212 -5 -400 -7 l-343 -4 -2 202 c-1
111 -2 216 -1 232 3 105 5 531 4 820 -1 187 -2 343 -1 348 0 4 281 7 625 7
l625 0 1 -42z m-2460 -309 c5 -8 8 -63 7 -124 l-3 -110 -119 -3 c-80 -2 -123
1 -132 9 -11 9 -14 37 -13 114 0 56 4 107 8 112 10 17 31 19 139 18 77 -1 106
-5 113 -16z m3223 -245 c13 -5 16 -26 16 -124 0 -66 -4 -121 -8 -124 -17 -10
-203 -15 -227 -6 -25 9 -25 11 -25 128 0 65 3 122 7 125 8 9 216 9 237 1z
m-3226 -96 c16 -16 16 -220 0 -236 -14 -14 -215 -16 -238 -2 -11 7 -15 34 -16
117 -1 60 3 114 8 121 14 17 229 17 246 0z m700 -107 c2 -75 -1 -118 -9 -127
-16 -20 -232 -20 -248 0 -11 13 -14 220 -4 239 3 4 62 6 131 5 l127 -3 3 -114z
m327 -11 l0 -125 -109 -3 c-68 -2 -113 1 -121 8 -14 12 -21 203 -9 235 5 13
24 15 123 13 l116 -3 0 -125z m1953 -316 c2 -87 -1 -120 -10 -126 -23 -14
-214 -10 -227 6 -8 9 -11 51 -9 122 l3 109 45 5 c25 3 79 4 120 4 l75 -2 3
-118z m-2973 84 c3 -13 5 -70 3 -128 l-3 -105 -124 -3 c-86 -2 -127 1 -132 9
-10 17 -8 211 3 232 8 15 25 17 128 17 116 0 120 -1 125 -22z m1025 5 c2 -57
2 -135 1 -185 l-1 -58 -119 0 c-99 0 -120 3 -125 16 -8 20 -8 192 0 222 6 21
10 22 125 22 106 0 119 -2 119 -17z m1255 -103 c3 -6 -1 -13 -10 -16 -19 -8
-30 0 -20 15 8 14 22 14 30 1z m-2277 -353 c3 -140 10 -134 -146 -134 -96 0
-104 1 -112 21 -6 16 -7 221 -1 234 0 1 58 1 129 0 l127 -3 3 -118z m340 10
c4 -151 7 -148 -131 -145 l-112 3 -5 118 c-3 64 -3 122 -2 128 3 6 50 9 125 7
l122 -3 3 -108z m350 -3 c2 -88 -1 -115 -12 -127 -17 -17 -191 -22 -231 -7
-25 9 -25 11 -23 122 1 62 3 117 5 121 3 4 62 6 131 5 l127 -3 3 -111z m337 7
c5 -155 8 -151 -124 -151 -77 0 -112 4 -118 12 -8 14 -14 228 -6 241 2 4 58 6
124 5 l120 -3 4 -104z m1393 60 c9 -9 12 -25 7 -48 -4 -24 -2 -35 9 -39 8 -3
18 -19 21 -35 4 -16 11 -31 16 -34 5 -4 9 -15 9 -26 0 -18 -4 -20 -47 -13 -27
3 -56 11 -66 16 -12 6 -23 6 -30 0 -7 -5 -40 -12 -74 -14 -76 -5 -82 9 -18 40
25 12 45 25 45 30 0 4 17 16 39 25 41 18 56 51 44 95 -3 12 -2 30 2 39 6 17 7
17 18 -2 6 -11 17 -26 25 -34z m310 -73 c2 -110 1 -118 -18 -128 -11 -6 -30
-8 -41 -5 -23 8 -69 -1 -69 -13 0 -4 4 -14 10 -22 7 -12 12 -11 30 5 18 16 23
17 31 5 18 -28 5 -45 -33 -45 -21 -1 -45 -8 -57 -19 -23 -21 -54 -18 -59 7 -3
12 7 22 32 32 41 17 48 48 16 65 -11 6 -20 20 -20 31 0 11 -4 28 -9 37 -5 9
-12 52 -16 95 l-7 78 103 -3 104 -3 3 -117z m-628 -170 c17 -12 30 -30 30 -39
0 -10 8 -31 17 -48 26 -45 6 -60 -34 -27 -23 19 -29 32 -26 50 4 20 0 25 -18
28 -18 2 -25 10 -27 31 -4 34 17 36 58 5z"/>
<path d="M6135 4210 c-4 -6 -2 -17 5 -25 14 -17 70 -1 70 21 0 17 -65 20 -75
4z"/>
<path d="M3598 3508 c9 -9 15 -9 24 0 9 9 7 12 -12 12 -19 0 -21 -3 -12 -12z"/>
<path d="M4072 3418 c6 -18 28 -21 28 -4 0 9 -7 16 -16 16 -9 0 -14 -5 -12
-12z"/>
<path d="M4210 3310 c0 -20 46 -33 69 -21 12 7 19 16 16 22 -8 12 -85 12 -85
-1z"/>
<path d="M3480 3280 c-12 -8 -12 -10 2 -15 19 -7 38 1 38 16 0 12 -21 11 -40
-1z"/>
<path d="M3674 3227 c-2 -7 -3 -232 -2 -502 l3 -490 363 -3 362 -3 0 53 c6
652 2 940 -11 949 -22 14 -709 10 -715 -4z"/>
<path d="M3493 3173 c-7 -3 -13 -13 -13 -24 0 -21 25 -16 34 6 6 17 -4 24 -21
18z"/>
<path d="M3615 3166 c-19 -14 -19 -15 -2 -22 22 -8 30 -1 25 21 -3 14 -5 14
-23 1z"/>
<path d="M4460 3060 c0 -5 9 -10 19 -10 11 0 23 5 26 10 4 6 -5 10 -19 10 -14
0 -26 -4 -26 -10z"/>
<path d="M3467 2954 c-11 -12 3 -24 29 -24 27 0 32 15 8 24 -20 8 -29 8 -37 0z"/>
<path d="M4440 2915 c0 -8 5 -15 10 -15 6 0 10 7 10 15 0 8 -4 15 -10 15 -5 0
-10 -7 -10 -15z"/>
<path d="M3500 2830 c0 -13 7 -20 18 -20 26 0 34 11 21 27 -17 20 -39 16 -39
-7z"/>
<path d="M3535 2480 c-11 -17 5 -30 36 -30 33 0 38 14 10 30 -25 13 -38 13
-46 0z"/>
<path d="M3586 2231 c-3 -5 0 -11 8 -14 15 -6 26 1 26 15 0 11 -27 10 -34 -1z"/>
<path d="M3590 2135 c0 -8 6 -15 14 -15 8 0 16 -7 20 -15 6 -16 33 -20 54 -6
10 6 5 14 -21 30 -40 25 -67 27 -67 6z"/>
<path d="M3786 2115 c-19 -14 -18 -15 13 -15 21 0 31 4 29 12 -6 18 -21 19
-42 3z"/>
<path d="M3474 2109 c-7 -11 12 -20 28 -14 8 3 21 -1 28 -10 20 -24 52 -19 48
8 -3 19 -9 22 -51 22 -27 1 -50 -2 -53 -6z"/>
<path d="M3705 2111 c-7 -12 12 -24 25 -16 11 7 4 25 -10 25 -5 0 -11 -4 -15
-9z"/>
<path d="M4155 2051 c-7 -12 12 -24 25 -16 11 7 4 25 -10 25 -5 0 -11 -4 -15
-9z"/>
</g>
</svg>
